<svg width="2922" height="1172" fill="none" version="1.1" viewBox="0 0 2922 1172" xmlns="http://www.w3.org/2000/svg">
 <path d="m878.24 242.16 14.777 11.95c2.716 2.197 5.211 4.654 7.449 7.337 21.019 25.199 14.636 63.202-13.461 80.152l-41.692 25.151c-15.491 9.346-33.322 14.09-51.409 13.679l-210.5-4.783c-18.255-0.414-36.405-2.882-54.108-7.357l-221.78-56.061c-67.086-16.958-102.31-104.59-48.603-148.22 79.604-64.659 146.92-29.683 164.93-21.732 38.214 16.873 95.318 72.277 116.36 87.489 17.68 14.168 61.086 15.722 79.786-34.321 18.699-50.043 26.046-77.635 18.054-64.921-1.817 3.54-2.278-2.707-7.863-8.669-13.624-14.546-73.821-18.099-93.629-20.299-63.522-7.055-16.318-47.638 42.69-72.194 5.607-2.333 11.597-4.672 17.99-7.005 77.156-28.157 134.58 20.126 153.64 47.786l76.452 115.9c13.991 21.21 31.167 40.138 50.925 56.116z" fill="#50a4e4" stroke="#50a4e4" stroke-linecap="round" stroke-width="9.5248"/>
 <path d="m849.01 233.06 14.778 11.951c2.716 2.196 5.211 4.654 7.449 7.337 21.018 25.198 14.636 63.202-13.461 80.151l-41.692 25.151c-15.491 9.346-33.322 14.09-51.409 13.679l-210.5-4.782c-18.255-0.415-36.405-2.883-54.108-7.358l-210.73-53.267c-72.274-18.269-73.504-71.506-22.57-125.94 64.034-68.432 147.28-30.453 164.93-21.732 19.453 9.613 61.599 32.934 82.636 48.146 17.681 14.167 69.365 14.774 88.064-35.269 14.088-37.7 11.144-39.667 5.418-32.908-4.478 5.286-7.441 11.134-13.331 14.782-25.624 15.869-62.196 16.931-87.947 1.267-29.885-18.179-36.62-43.685-32.868-67.435 6.812-43.122 53.312-58.61 94.323-73.576 77.156-28.156 134.58 20.126 153.64 47.786l76.452 115.9c13.991 21.211 31.167 40.138 50.924 56.116z" fill="#1577e2" stroke="#1577e2" stroke-linecap="round" stroke-width="9.5248"/>
 <path d="m1198.9 414.5c30.95 17.562 39.43 27.039 71.76 12.449 0.12-0.051 0.21-0.148 0.26-0.26 14.6-32.337 5.45-41.141-12.11-72.099-2.97-5.225-6.22-10.92-9.77-17.113l-94.91-25.373 24.86 91.035c7.28 4.179 13.9 7.957 19.91 11.361z" fill="#9ab0d5"/>
 <g fill="#f3c658">
  <path d="m962.82 35.04c-42.513-15.457-81.003-22.153-106.82-23.358l48.558 50.5 116.67-1c-19.76-10.643-39.482-19.261-58.409-26.142z"/>
  <path d="m1168.8 200.46c-21.84-36.811-48.57-66.954-77.39-91.481l-66.02 2.953-66.033 2.953 194.73 197.22 94.91 25.373c-18.07-31.544-43.98-75.993-80.2-137.02z"/>
  <path d="m953.73 247.65c24.448 28.625 54.451 55.163 91.051 76.881 59.24 35.16 102.86 60.605 134.22 78.602l-24.86-91.035-194.73-197.22z"/>
  <path d="m856 11.682c1.205 25.81 7.897 64.285 23.343 106.78 5.308 14.603 11.649 29.68 19.157 44.882l6.058-101.16z"/>
 </g>
 <path d="m953.73 247.65 5.678-132.77-28.407-25.202-26.442-27.5-6.058 101.16c7.719 15.631 16.671 31.393 27 46.905 8.46 12.704 17.843 25.242 28.229 37.402z" fill="#9ab0d5"/>
 <path d="m959.41 114.88 132.05-5.906c-8.06-6.864-16.29-13.289-24.62-19.296-14.99-10.804-30.31-20.259-45.61-28.5l-116.67 1 26.442 27.5z" fill="#9ab0d5"/>
 <path d="m856 11.682c1.205 25.81 7.897 64.285 23.343 106.78 5.308 14.603 11.649 29.68 19.157 44.882m-42.5-151.66c25.818 1.205 64.308 7.901 106.82 23.358 18.927 6.881 38.649 15.499 58.409 26.142m-165.23-49.5 48.558 50.5m186.9 46.796c28.82 24.527 55.55 54.67 77.39 91.481 36.22 61.022 62.13 105.47 80.2 137.02m-157.59-228.5-66.02 2.953-66.033 2.953m132.05-5.906c-8.06-6.864-16.29-13.289-24.62-19.296-14.99-10.804-30.31-20.259-45.61-28.5m-67.501 186.47c24.448 28.625 54.451 55.163 91.051 76.881 59.24 35.16 102.86 60.605 134.22 78.602m-225.27-155.48 5.678-132.77m-5.678 132.77c-10.386-12.16-19.769-24.698-28.229-37.402-10.329-15.512-19.281-31.274-27-46.905m255.64 148.76 24.86 91.035m-24.86-91.035 94.91 25.373m-94.91-25.373-194.73-197.22m219.59 288.25c7.28 4.179 13.9 7.957 19.91 11.361 30.95 17.562 39.43 27.039 71.76 12.449 0.12-0.051 0.21-0.148 0.26-0.26 14.6-32.337 5.45-41.141-12.11-72.099-2.97-5.225-6.22-10.92-9.77-17.113m-289.64-222.59-28.407-25.202-26.442-27.5m0 0-6.058 101.16m6.058-101.16 116.67-1" stroke="#060f5c" stroke-linecap="round" stroke-width="7.1045"/>
 <path d="m1803.8 188.02c-240.85-51.326-438.62 34.941-542.06 108.63-33.79 24.07-51.83 63.295-56.07 104.56-4.53 44.089 7.63 88.274 34.07 123.84l95.4 128.32c83.06 111.72 202.76 191.95 339.6 217.54 67 12.525 128.76 22.001 159.2 21.511 39.39-0.62 284.85-33.551 534.28-74.396 265.16-43.419 460.53-259.78 494.13-526.35 3.71-19.932 3.35-42.673 0.06-65.665-14.56-101.75-111.04-175.95-211.47-154.1-15.7 3.415-32.57 8.092-50.59 14.261-88.66 30.335-94.09 110.65-80.55 169.28 6.21 26.886 23.44 49.351 43.57 68.229 14.41 11.804 33.58 16.04 51.62 11.407l5.17-1.328c18.02-4.626 32.1-18.671 36.77-36.674 2.66-10.231 2.07-21.033-1.67-30.92l-0.91-2.416c-6-15.867-18.51-28.401-34.37-34.428l-8.06-3.063c-2.51-0.957-4.89-2.261-7.04-3.874-20.76-15.534-12.14-48.433 13.57-51.792l6.33-0.828c6.27-0.819 12.64 0.268 18.29 3.119l12.5 6.315c10.49 5.3 19.62 12.932 26.7 22.311l2.18 2.876c10.09 13.369 16.37 29.229 18.15 45.886l2.12 19.799c1.35 12.66 1.6 25.539-1.97 37.761-10.46 35.85-40.34 86.856-104.86 98.152-187.12 32.759-364.48-91.595-544.86-151.16-70.09-23.147-153.25-46.341-249.23-66.793z" fill="#50a4e4"/>
 <path d="m2862.4 291.67c3.71-19.932 3.35-42.673 0.06-65.665-14.56-101.75-111.04-175.95-211.47-154.1-15.7 3.415-32.57 8.092-50.59 14.261-88.66 30.335-94.09 110.65-80.55 169.28 6.21 26.886 23.44 49.351 43.57 68.229v0c14.41 11.804 33.58 16.04 51.62 11.407l5.17-1.328c18.02-4.626 32.1-18.671 36.77-36.674v0c2.66-10.231 2.07-21.033-1.67-30.92l-0.91-2.416c-6-15.867-18.51-28.401-34.37-34.428l-8.06-3.063c-2.51-0.957-4.89-2.261-7.04-3.874v0c-20.76-15.534-12.14-48.433 13.57-51.792l6.33-0.828c6.27-0.819 12.64 0.268 18.29 3.119l12.5 6.315c10.49 5.3 19.62 12.932 26.7 22.311l2.18 2.876c10.09 13.369 16.37 29.229 18.15 45.886l2.12 19.799c1.35 12.66 1.6 25.539-1.97 37.761-10.46 35.85-40.34 86.856-104.86 98.152v0c-187.12 32.759-364.48-91.595-544.86-151.16-70.09-23.147-153.25-46.341-249.23-66.794-240.85-51.325-438.62 34.942-542.06 108.63-33.79 24.07-51.83 63.295-56.07 104.56v0c-4.53 44.089 7.63 88.274 34.07 123.84l95.4 128.32c83.06 111.72 202.76 191.95 339.6 217.54 67 12.525 128.76 22.001 159.2 21.511 39.39-0.62 284.85-33.551 534.28-74.396 265.16-43.419 460.53-259.78 494.13-526.35zm0 0c-13.06 70.197 14.1-31.631 0 0z" stroke="#50a4e4" stroke-linecap="round" stroke-width="12.154"/>
 <path d="m1786.9 190.11c-240.86-51.326-438.62 34.941-542.06 108.63-33.79 24.07-51.83 63.295-56.07 104.56-4.53 44.088 7.63 88.273 34.07 123.84l95.4 128.32c83.06 111.72 202.75 191.96 339.6 217.54 67 12.524 128.76 21.999 159.2 21.519 40.35-0.65 298.87-41.189 555.91-87.985 254.48-46.329 441.85-255.94 472.5-512.77 3.37-18.151 3.61-37.594 1.41-56.956-11.2-98.786-101.84-182.6-200.91-174.3-19.82 1.659-41.51 6.004-64.95 14.026-100.89 34.52-92 143.38-71.65 203.55 3.88 11.459 11.17 21.344 19.99 29.621l1.07 1.003c10.53 9.878 23.4 16.914 37.4 20.446l5.8 1.463c12.4 3.13 25.46 2.542 37.53-1.692l1.17-0.41c17.09-5.994 30.75-19.11 37.42-35.95l0.75-1.877c2.41-6.092 3.65-12.587 3.65-19.14 0-13.052-4.91-25.626-13.76-35.219l-6.64-7.192c-2.56-2.777-5.78-4.859-9.37-6.052l-5.51-1.835c-11.03-3.672-15.65-16.742-9.39-26.534 2.91-4.546 7.72-7.531 13.08-8.119l10.97-1.202c17.11-1.875 33.56 7.164 41.16 22.611l4.08 8.309c2.79 5.682 4.57 11.81 5.24 18.106l3.13 29.251c1.82 16.97 2.26 34.306-3.23 50.465-11.99 35.274-42.03 81.278-102.9 91.935-187.12 32.758-364.48-91.595-544.86-151.16-70.09-23.146-153.25-46.341-249.23-66.793z" fill="#1577e2"/>
 <g stroke-linecap="round">
  <path d="m2845.5 293.76c3.37-18.151 3.61-37.594 1.41-56.956-11.2-98.786-101.84-182.6-200.91-174.3-19.82 1.659-41.51 6.004-64.95 14.026-100.89 34.52-92 143.38-71.65 203.55 3.88 11.459 11.17 21.344 19.99 29.621l1.07 1.003c10.53 9.878 23.4 16.914 37.4 20.446l5.8 1.463c12.4 3.13 25.46 2.542 37.53-1.692l1.17-0.41c17.09-5.994 30.75-19.11 37.42-35.95l0.75-1.877c2.41-6.092 3.65-12.587 3.65-19.14 0-13.052-4.91-25.626-13.76-35.219l-6.64-7.192c-2.56-2.777-5.78-4.859-9.37-6.052l-5.51-1.835c-11.03-3.672-15.65-16.742-9.39-26.534 2.91-4.546 7.72-7.531 13.08-8.119l10.97-1.202c17.11-1.875 33.56 7.164 41.16 22.611l4.08 8.309c2.79 5.682 4.57 11.81 5.24 18.106l3.13 29.251c1.82 16.97 2.26 34.306-3.23 50.465-11.99 35.274-42.03 81.278-102.9 91.935-187.12 32.758-364.48-91.595-544.86-151.16-70.09-23.146-153.25-46.341-249.23-66.793-240.86-51.326-438.62 34.941-542.06 108.63-33.79 24.07-51.83 63.295-56.07 104.56-4.53 44.088 7.63 88.273 34.07 123.84l95.4 128.32c83.06 111.72 202.75 191.96 339.6 217.54 67 12.524 128.76 21.999 159.2 21.519 40.35-0.65 298.87-41.189 555.91-87.985 254.48-46.329 441.85-255.94 472.5-512.77zm0 0c-13.06 70.197 14.1-31.63 0 0z" stroke="#1577e2" stroke-width="12.154"/>
  <path d="m916.06 223.89c-297.9-14.036-519.83 146.98-650.17 266.96-51.925 47.797-80.374 115.3-84.622 185.75-9.518 157.8 107.28 294.95 264.58 310.69l410.45 41.07 2236.1 32.89c130.28 1.91 236.92-103.17 236.92-233.46v-7.543c0-112.45-83.07-207.6-194.49-222.78-17.59-2.397-34.8-6.874-51.37-13.25-85.22-32.799-242.6-91.451-348.47-124.23-65.69-20.337-137.82-22.44-200.35-18.834-81.24 4.685-159.15 30.493-235.95 57.384-122.25 42.804-314.1 92.038-529.09 62.852-382.17-51.883-391.43-315.71-853.51-337.48z" fill="#394694" stroke="#394694" stroke-width="6.4853"/>
  <path d="m962.15 288.06c-290.32-13.679-540.2 114.89-685.38 223.41-64.248 48.026-96.127 125.47-99.52 205.62-7.314 172.75 121.42 321.21 293.47 338.42l385.58 38.59 2236.1 32.88c130.28 1.91 236.92-103.17 236.92-233.46v-7.544c0-112.45-83.07-207.6-194.49-222.79-17.59-2.397-34.8-6.874-51.37-13.25-85.22-32.798-242.6-91.45-348.47-124.23-64.54-19.983-133.35-29.989-193.35-33.508-81.23-4.764-160.46 18.796-239.96 36.178-124.25 27.168-318.31 49.976-532.08 20.955-382.17-51.882-345.34-239.49-807.42-261.27z" fill="#060f5c" stroke="#060f5c" stroke-width="6.4853"/>
 </g>
 <path d="m1668.6 338.76c-0.88-0.046-1.59 0.663-1.54 1.538 1.97 37.827 11.82 93.528 34.15 154.96l117.4-5.25 5.01-117.08c-61.46-22.345-117.18-32.203-155.02-34.171z" fill="#e64614"/>
 <path d="m2125.8 615.49c-32.03-53.977-71.22-98.178-113.48-134.14l-193.64 8.66-8.33 194.69c35.85 41.975 79.85 80.888 133.51 112.73 86.88 51.558 150.84 88.868 196.82 115.26l-36.46-133.49 139.19 37.206c-26.51-46.255-64.5-111.43-117.61-200.91z" fill="#e64614"/>
 <g fill="#f3c658">
  <path d="m2012.3 481.35c-60.56-51.543-127.44-86.171-188.63-108.42l-5.01 117.08z"/>
  <path d="m1701.2 495.26c22.34 61.46 57.16 128.66 109.07 189.44l8.33-194.69z"/>
  <path d="m2169.8 929.35c45.39 25.75 57.82 39.65 105.24 18.25 0.16-0.07 0.3-0.21 0.38-0.38 21.4-47.42 7.98-60.33-17.77-105.72-4.35-7.663-9.11-16.014-14.31-25.094l-139.19-37.206 36.46 133.49c10.68 6.13 20.39 11.67 29.19 16.66z"/>
 </g>
 <g stroke-linecap="round">
  <path d="m1701.2 495.26c-22.33-61.434-32.18-117.14-34.15-154.96-0.05-0.875 0.66-1.584 1.54-1.538 37.84 1.968 93.56 11.826 155.02 34.171m-122.41 122.33c22.34 61.46 57.16 128.66 109.07 189.44m-109.07-189.44 117.4-5.25m193.64-8.66c42.26 35.965 81.45 80.166 113.48 134.14 53.11 89.481 91.1 154.66 117.61 200.91m-231.09-335.06c-60.56-51.543-127.44-86.171-188.63-108.42m188.63 108.42-193.64 8.66m5.01-117.08-5.01 117.08m-8.33 194.69c35.85 41.975 79.85 80.888 133.51 112.73 86.88 51.558 150.84 88.868 196.82 115.26m-330.33-227.99 8.33-194.69m81.28 146.69 57.3-55.437m183.42 331.43c10.68 6.13 20.39 11.67 29.19 16.66 45.39 25.75 57.82 39.65 105.24 18.25 0.16-0.07 0.3-0.21 0.38-0.38 21.4-47.42 7.98-60.33-17.77-105.72-4.35-7.663-9.11-16.014-14.31-25.094m-102.73 96.284-36.46-133.49 139.19 37.206" stroke="#060f5c" stroke-width="10.418"/>
  <path d="m657.9 451.22c-411.03-409.19-918.74-260.83-1138.2-181.69-9.265 3.34-19.351-1.7-22.329-11.088-5.97-18.819-33.744-14.519-33.744 5.224v83.637l-34.002 692.88c-3.476 70.82 53.011 130.15 123.92 130.15l4201.5 23.63c-28.4-37.92-214.12-195.5-431.34-312.64-271.53-146.42-550.73-243.64-798.08-243.64-197.88 0-460.06 85.141-705.05 185.12-240.17 98.012-388.01 186.67-598.34 105.89-147.38-56.607-390.42-304.4-564.27-477.47z" fill="#0ea2db" stroke="#0ea2db" stroke-width="11.023"/>
  <path d="m708.78 569.79c-408.44-406.65-912.65-373.68-1134.3-301.28-13.365 4.365-27.996 3.144-40.123-3.969-31.321-18.373-70.755 4.213-70.755 40.524v113.19l-33.999 692.87c-3.475 70.82 53.006 130.14 123.91 130.14l4205.4-43.29c-28.4-37.92-139.49-143.04-356.69-260.17-271.5-146.42-628.78-249.15-876.1-249.15-197.86 0-634.08 122.8-827.46 184.2-193.38 61.405-568 116.98-989.89-303.07z" fill="#0091d0" stroke="#0091d0" stroke-width="11.023"/>
 </g>
</svg>
