<?xml version="1.0" encoding="UTF-8"?>
<svg width="229" height="229" fill="none" version="1.1" viewBox="0 0 229 229" xmlns="http://www.w3.org/2000/svg">
 <g filter="url(#filter0_i_8_247)">
  <path d="m19.236 230 2.622-75.947c0-6.714 4.637-12.469 11.232-13.77 0.681-0.134 1.609-0.265 2.302-0.299l5.686-0.277c3.933-0.192 7.828-0.852 11.603-1.966 5.224-1.541 10.387-3.494 14.83-6.641 4.23-2.997 7.822-5.574 10.951-9.706l2.776-4.005c4.413-5.826 6.826-12.784 8.391-19.921l0.568-2.5891c0.401-1.8307 0.604-3.6993 0.604-5.5735 0-0.8911-0.046-1.7806-0.137-2.665-4e-3 -0.0338 0.021-0.064 0.055-0.0672l1.22-0.1164c10.767-1.027 21.018-5.099 29.554-11.74 4.137-3.1254 6.925-7.3879 9.9261-11.613l0.1215-0.1712c3.1512-4.4372 5.5468-9.364 7.0901-14.581 1.1155-3.7711 1.7761-7.6617 1.968-11.589l0.2774-5.6798c0.0338-0.6923 0.1652-1.6185 0.2997-2.2986 1.3027-6.5871 7.0641-11.219 13.786-11.219l76.038-2.6189-74.146-2.488c-2.5812-0.0867-5.1597 0.2402-7.6375 0.9681l-2.2688 0.6665c-2.9251 0.8593-5.5448 2.5327-7.5525 4.8246-0.8269 0.9438-1.54 1.9812-2.1248 3.0911l-0.3897 0.7395c-1.2014 2.2799-2.0131 4.7443-2.4015 7.2914l-0.928 6.0854c-0.9561 6.2689-2.9032 12.33-5.7532 17.96-2.28 4.5018-5.651 8.3227-9.233 11.877l-4.111 4.0807c-0.14 0.1383-0.29 0.2656-0.449 0.3806-5.692 4.117-12.417 6.5702-19.423 7.0856l-6.033 0.4437c-2e-3 2e-4 -5e-3 -0.0015-6e-3 -0.0042l-0.796-2.6656c-2.053-6.8662-5.584-13.201-10.347-18.56l-2.035-2.2899c-2.744-3.087-6.044-5.6317-9.728-7.5018-2.544-1.2915-5.246-2.2478-8.036-2.8451l-6.553-1.4025c-0.023-0.0049-0.039-0.0259-0.037-0.0491l0.136-1.7618c0.316-4.1087 1.354-8.1827 3.026-11.95 2.649-5.9672 6.919-11.174 12.28-14.907l1.208-0.8412c3.855-2.6834 8.332-4.4187 12.987-5.0528 4.226-0.5756 8.562-0.2279 12.638 1.028l0.777 0.2394c4.917 1.515 9.287 4.4231 12.581 8.3711l0.951 1.1397c3.113 3.7303 4.912 8.3787 5.12 13.23l0.04 0.9253c0.166 3.858-0.838 7.6761-2.883 10.954l-0.175 0.2804c-1.669 2.6761-4.026 4.8714-6.813 6.3528-3.428 1.8227-7.372 2.4872-11.208 1.8791l-0.856-0.1358c-1.944-0.3082-3.803-1.029-5.447-2.1103-2.482-1.6321-4.375-4.0228-5.39-6.8117-0.989-2.7164-1.099-5.6745-0.314-8.4567l0.892-3.1641c0.638-2.2614 2.031-4.2366 3.949-5.5974 1.877-1.3325 4.148-1.998 6.448-1.8903l2.119 0.0992c2.723 0.1275 5.327 1.1563 7.4 2.9243l0.167 0.1422c1.92 1.6368 3.254 3.853 3.802 6.3139l0.084 0.3784c0.402 1.8073 0.305 3.6898-0.281 5.4462l-0.29 0.8687c-0.626 1.8757-1.936 3.4475-3.67 4.4026l-0.218 0.1206c-3.374 1.859-7.442 0.0741-10.145-2.6699-0.767-0.7788-1.355-1.4104-1.521-1.5908l1.696 2.7626c0.758 1.2367 1.859 2.2277 3.169 2.8536 1.984 0.9476 4.431 1.5132 6.495 0.7556 0.935-0.3431 1.793-0.8622 2.381-1.229 1.157-0.7223 2.109-1.7294 2.764-2.9248l0.777-1.4168c1.158-2.1128 1.713-4.5029 1.603-6.9091-0.092-2.0382-0.659-4.0268-1.654-5.8084l-0.218-0.3895c-1.291-2.3094-3.168-4.2379-5.444-5.5907l-0.238-0.1419c-1.826-1.0854-3.849-1.7988-5.952-2.0989l-0.398-0.0567c-2.617-0.3735-5.285-0.1695-7.814 0.5975l-0.762 0.2311c-2.645 0.8018-5.035 2.2752-6.939 4.2763-1.937 2.0365-3.301 4.5478-3.954 7.28l-0.487 2.0382c-0.647 2.7037-0.649 5.5211-6e-3 8.2257 0.772 3.2509 2.447 6.2183 4.832 8.5613l0.971 0.9541c3.123 3.0686 7.076 5.1602 11.372 6.0184l1.103 0.2204c2.062 0.4119 4.172 0.5244 6.266 0.3343 3.499-0.3177 6.869-1.4732 9.826-3.3687l0.629-0.4031c3.418-2.1907 6.247-5.1827 8.242-8.7153l0.26-0.4595c2.287-4.0494 3.489-8.6199 3.489-13.269v-1.8123c0-5.0766-1.256-10.075-3.656-14.55-2.163-4.0319-5.197-7.5323-8.883-10.247l-2.466-1.8164c-2.832-2.0865-5.975-3.7154-9.314-4.8271-2.798-0.93138-5.706-1.4908-8.65-1.6637l-3.431-0.20158-5.436 0.43787c-2.738 0.22056-5.433 0.81327-8.011 1.7618-3.247 1.1949-6.264 2.9384-8.92 5.1543l-4.023 3.357c-2.754 2.2979-5.196 4.9444-7.266 7.8726-2.834 4.0108-4.93 8.4945-6.187 13.24l-0.746 2.8148c-0.086 0.3226-0.146 0.6515-0.179 0.9836l-0.54 5.3912c-0.015 0.1544-0.145 0.2719-0.3 0.2719-0.116 0-0.222-0.0659-0.272-0.1699l-2.237-4.5917c-0.303-0.6232-0.529-1.2811-0.672-1.9592l-0.614-2.9147c-0.677-3.2105-0.848-6.5068-0.506-9.7699 0.373-3.5715 1.355-7.0531 2.903-10.294l2.382-4.9897c0.019-0.03912-0.024-0.0791-0.062-0.05798l-3.059 1.7057c-2.285 1.2734-4.341 2.9174-6.085 4.8646l-1.22 1.3614c-0.92 1.0272-1.665 2.1988-2.204 3.4677-0.88 2.0733-1.186 4.3451-0.885 6.5771l0.6 4.4524c4e-3 0.0315-0.039 0.0458-0.054 0.0181l-2.548-4.4912-2.651-4.4126c-1.594-2.6533-3.902-4.8058-6.662-6.212-2.195-1.1188-4.613-1.733-7.077-1.7978l-2.086-0.0548c-0.017-5e-4 -0.029 0.0147-0.026 0.0309l0.991 4.7671c0.461 2.2223 1.355 4.3327 2.629 6.2118 0.869 1.2807 1.905 2.4396 3.081 3.4463l0.52 0.4457c1.346 1.1525 2.824 2.142 4.403 2.948l4.413 2.253c0.039 0.0194 0.025 0.0769-0.018 0.0769h-4.553c-1.367 0-2.725 0.2202-4.022 0.652-1.157 0.385-2.251 0.9339-3.251 1.6299l-0.728 0.5064c-1.887 1.3138-3.518 2.9614-4.811 4.8613l-3.261 4.7895c-0.017 0.0254-0.027 0.0555-0.027 0.0863 0 0.117 0.126 0.191 0.229 0.1341l1.16-0.6435 4.949-2.1454c2.142-0.9282 4.391-1.5866 6.695-1.9598l0.087-0.0141c1.431-0.2317 2.878-0.3482 4.327-0.3482 3.151 0 6.278 0.5502 9.239 1.6257l4.007 1.4553 3.382 1.5483c0.155 0.0709 0.192 0.2742 0.071 0.3945-0.038 0.0388-0.089 0.0634-0.144 0.0698l-3.758 0.4416c-0.931 0.1094-1.844 0.3354-2.718 0.6729l-4.073 1.5731c-4.089 1.5795-7.884 3.8355-11.224 6.6735-3.498 2.9724-6.444 6.5377-8.702 10.532l-0.335 0.5921c-2.413 4.269-3.979 8.9632-4.611 13.825-0.389 2.9897-0.421 6.0151-0.096 9.0124l0.437 4.0194c0.306 2.8253 0.969 5.6004 1.973 8.2593l0.154 0.408c1.246 3.299 3.043 6.363 5.315 9.062 1.511 1.795 3.22 3.414 5.094 4.825l1.373 1.034c3.437 2.589 7.388 4.414 11.588 5.353 2.629 0.588 5.324 0.822 8.014 0.696l1.647-0.077c2.764-0.129 5.493-0.679 8.091-1.631l0.662-0.242c3.081-1.129 5.896-2.881 8.268-5.147 2.309-2.206 4.15-4.853 5.414-7.784l0.194-0.449c1.455-3.375 2.158-7.025 2.058-10.698l-0.038-1.4207c-0.079-2.8978-0.815-5.7401-2.154-8.3121-1.301-2.4985-3.138-4.6796-5.38-6.3875l-0.218-0.1664c-3.553-2.7065-7.897-4.1724-12.366-4.1724h-2.634c-1.256 0-2.508 0.1494-3.728 0.445-2.145 0.5192-4.157 1.4805-5.907 2.8222l-0.77 0.5905c-2.101 1.6104-3.74 3.7457-4.751 6.1904-0.911 2.2046-1.285 4.594-1.09 6.9712l0.17 2.0668c0.2 2.4441 0.95 4.8112 2.193 6.9262l0.122 0.209c1.41 2.398 3.441 4.372 5.881 5.712l0.385 0.212c1.36 0.747 2.843 1.245 4.379 1.471 1.924 0.282 3.886 0.131 5.743-0.443l1.206-0.373c1.608-0.497 3.063-1.393 4.23-2.603l0.45-0.467c1.158-1.201 1.908-2.735 2.144-4.386 0.354-2.4748-0.29-5.7067-2.06-7.4745l-4.23-3.3008c-0.013-0.0132-0.033-7e-4 -0.031 0.0152 1e-3 0.0044 4e-3 8e-3 7e-3 0.0113 3.03 3.2999 5.772 7.4179 3.807 11.445-0.297 0.609-0.623 1.175-0.944 1.663-0.989 1.501-2.513 2.568-4.263 2.984l-2.313 0.55c-0.954 0.227-1.939 0.298-2.916 0.209-2.32-0.211-4.469-1.307-6.001-3.06l-1.217-1.394c-1.771-2.028-2.88-4.5476-3.177-7.2219-0.107-0.9561-0.108-1.9209-5e-3 -2.8773l0.15-1.3771c0.204-1.8929 0.877-3.7053 1.957-5.2742 1.145-1.6635 2.709-2.9963 4.533-3.8642l0.906-0.4306c1.835-0.8727 3.841-1.3255 5.873-1.3255 0.82 0 1.638 0.0736 2.444 0.2201l1.399 0.254c2.719 0.4937 5.223 1.804 7.177 3.7558 1.672 1.6699 2.878 3.7467 3.5 6.0252l0.343 1.253c0.673 2.4675 0.819 5.0492 0.426 7.5767l-0.067 0.434c-0.474 3.051-1.789 5.911-3.797 8.258-2.121 2.481-4.926 4.284-8.065 5.186l-1.83 0.526c-3.045 0.875-6.242 1.112-9.383 0.696-3.753-0.496-7.331-1.908-10.408-4.109l-0.478-0.343c-3.394-2.428-6.136-5.654-7.984-9.393l-0.377-0.761c-1.959-3.9616-2.977-8.3207-2.977-12.739v-1.6481c0-2.8302 0.407-5.6458 1.209-8.3604 1.035-3.5056 2.714-6.7888 4.949-9.6828l1.402-1.8151c2.34-3.0304 5.253-5.573 8.573-7.484 2.697-1.5524 5.624-2.6658 8.672-3.2983l7.209-1.4962c0.038-0.0078 0.075 0.0144 0.086 0.0512l1.402 4.6695c0.899 2.9932 2.182 5.8579 3.815 8.5231 1.44 2.3483 3.142 4.5255 5.075 6.4894l3.402 3.4578c1.65 1.6769 3.464 3.1844 5.415 4.4998 2.15 1.4497 4.455 2.6577 6.871 3.602l6.435 2.515c0.38 0.1487 0.774 0.2608 1.176 0.3348l4.688 0.6012c0.258 0.0331 0.453 0.2519 0.456 0.512 0.015 1.3048 0.061 4.8638-5e-3 5.1656l-0.808 6.7045c-1.344 6.136-3.793 11.494-7.403 16.637-3.049 4.344-8.145 8.426-12.543 11.4-5.369 3.631-10.988 4.973-17.397 5.949l-9.702 1.476c-2.55 0.388-5.018 1.198-7.3 2.398l-0.741 0.389c-1.111 0.585-2.15 1.297-3.095 2.123-2.294 2.005-3.97 4.622-4.83 7.543l-0.667 2.266c-0.729 2.475-1.056 5.051-0.97 7.629zm60.747-152.97c-6.27-0.6391-20.55-6.5782-27.516-25.222 6.684 0.6422 21.546 6.5857 27.516 25.222z" clip-rule="evenodd" fill="#e39e5d" fill-rule="evenodd"/>
 </g>
 <path d="m88.405 41.04c0.166 0.1804 0.754 0.812 1.521 1.5908 2.703 2.7439 6.771 4.5289 10.145 2.6699l0.218-0.1206c1.734-0.9551 3.044-2.5269 3.67-4.4026l0.29-0.8688c0.586-1.7563 0.683-3.6388 0.281-5.4461l-0.084-0.3784c-0.548-2.4609-1.882-4.6771-3.802-6.3139l-0.167-0.1422c-2.073-1.768-4.677-2.7968-7.4-2.9243l-2.119-0.0992c-2.3-0.1077-4.571 0.5578-6.448 1.8903-1.918 1.3608-3.311 3.336-3.949 5.5974l-0.892 3.1641c-0.785 2.7822-0.675 5.7403 0.314 8.4567 1.015 2.7888 2.908 5.1796 5.39 6.8117 1.644 1.0813 3.503 1.8021 5.447 2.1103l0.856 0.1358c3.836 0.6081 7.78-0.0564 11.208-1.8791 2.787-1.4814 5.144-3.6767 6.813-6.3528l0.175-0.2804c2.045-3.2776 3.049-7.0957 2.883-10.954l-0.04-0.9253c-0.208-4.8513-2.007-9.4997-5.12-13.23l-0.951-1.1397c-3.294-3.948-7.664-6.8561-12.581-8.3711l-0.777-0.2394c-4.076-1.2559-8.412-1.6036-12.638-1.028-4.655 0.6341-9.132 2.3694-12.987 5.0528l-1.208 0.8412c-5.361 3.7322-9.631 8.9395-12.28 14.907-1.672 3.7673-2.71 7.8413-3.026 11.95l-0.136 1.7618c-2e-3 0.0232 0.014 0.0442 0.037 0.049l6.553 1.4026c2.79 0.5973 5.492 1.5536 8.036 2.8451 3.684 1.8701 6.984 4.4148 9.728 7.5018l2.035 2.2899c4.763 5.3587 8.294 11.693 10.347 18.56l0.796 2.6656c1e-3 0.0027 4e-3 0.0044 6e-3 0.0042l6.033-0.4437c7.006-0.5154 13.731-2.9686 19.423-7.0856 0.159-0.115 0.309-0.2423 0.449-0.3806l4.111-4.0808c3.582-3.5544 6.953-7.3753 9.233-11.877 2.85-5.6303 4.7971-11.691 5.7532-17.96l0.928-6.0854c0.3884-2.5471 1.2001-5.0115 2.4015-7.2914l0.3897-0.7395c0.5848-1.1098 1.2979-2.1473 2.1248-3.0911 2.0077-2.2919 4.6274-3.9653 7.5525-4.8246l2.2688-0.6665c2.4778-0.7279 5.0563-1.0548 7.6375-0.9681l74.146 2.488-76.038 2.6189c-6.7224 0-12.484 4.6323-13.786 11.219-0.1345 0.6801-0.2659 1.6063-0.2997 2.2986l-0.2774 5.6798c-0.1919 3.9276-0.8525 7.8182-1.968 11.589-1.5433 5.2172-3.9389 10.144-7.0901 14.581l-0.1215 0.1712c-3.0011 4.2253-5.7891 8.4878-9.9261 11.613-8.536 6.6407-18.787 10.713-29.554 11.74l-1.22 0.1163c-0.034 0.0033-0.059 0.0335-0.055 0.0673 0.091 0.8844 0.137 1.7739 0.137 2.665 0 1.8742-0.203 3.7428-0.604 5.5735l-0.568 2.5891c-1.565 7.137-3.978 14.095-8.391 19.921l-2.776 4.005c-3.129 4.132-6.721 6.709-10.951 9.706-4.443 3.147-9.606 5.1-14.83 6.641-3.775 1.114-7.67 1.774-11.603 1.966l-5.686 0.277c-0.693 0.034-1.621 0.165-2.302 0.299-6.595 1.301-11.232 7.056-11.232 13.77l-2.622 75.947-2.492-74.057c-0.086-2.578 0.241-5.154 0.97-7.629l0.667-2.266c0.86-2.921 2.536-5.538 4.83-7.543 0.945-0.826 1.984-1.538 3.095-2.123l0.741-0.389c2.282-1.2 4.75-2.01 7.3-2.398l9.702-1.476c6.409-0.976 12.028-2.318 17.397-5.949 4.398-2.974 9.494-7.056 12.543-11.4 3.61-5.143 6.059-10.501 7.403-16.637l0.808-6.7045c0.066-0.3018 0.02-3.8608 5e-3 -5.1656-3e-3 -0.2601-0.198-0.4789-0.456-0.512l-4.688-0.6012c-0.402-0.074-0.796-0.1861-1.176-0.3348l-6.435-2.515c-2.416-0.9443-4.721-2.1523-6.871-3.602-1.951-1.3154-3.765-2.8229-5.415-4.4998l-3.402-3.4578c-1.933-1.9639-3.635-4.1411-5.075-6.4894-1.633-2.6652-2.916-5.5299-3.815-8.5231l-1.402-4.6695c-0.011-0.0368-0.048-0.059-0.086-0.0512l-7.209 1.4962c-3.048 0.6325-5.975 1.7459-8.672 3.2983-3.32 1.911-6.233 4.4536-8.573 7.484l-1.402 1.8151c-2.235 2.894-3.914 6.1772-4.949 9.6828-0.802 2.7146-1.209 5.5302-1.209 8.3604v1.6481c0 4.4183 1.018 8.7773 2.977 12.739l0.377 0.761c1.848 3.739 4.59 6.965 7.984 9.393l0.478 0.343c3.077 2.201 6.655 3.613 10.408 4.109 3.141 0.416 6.338 0.179 9.383-0.696l1.83-0.526c3.139-0.902 5.944-2.705 8.065-5.186 2.008-2.347 3.323-5.207 3.797-8.258l0.067-0.434c0.393-2.5275 0.247-5.1092-0.426-7.5767l-0.343-1.253c-0.622-2.2785-1.828-4.3553-3.5-6.0252-1.954-1.9518-4.458-3.262-7.177-3.7558l-1.399-0.254c-0.806-0.1465-1.624-0.2201-2.444-0.2201-2.032 0-4.038 0.4528-5.873 1.3255l-0.906 0.4306c-1.824 0.8679-3.388 2.2007-4.533 3.8642-1.08 1.5689-1.753 3.3813-1.957 5.2742l-0.15 1.3771c-0.103 0.9564-0.102 1.9212 5e-3 2.8773 0.297 2.6743 1.406 5.1939 3.177 7.2219l1.217 1.394c1.532 1.753 3.681 2.849 6.001 3.06 0.977 0.089 1.962 0.018 2.916-0.209l2.313-0.55c1.75-0.416 3.274-1.483 4.263-2.984 0.321-0.488 0.647-1.054 0.944-1.663 1.965-4.0268-0.777-8.1449-3.807-11.445-3e-3 -0.0033-6e-3 -0.0069-7e-3 -0.0113-2e-3 -0.0159 0.018-0.0284 0.031-0.0152l4.23 3.3008c1.77 1.7678 2.414 4.9997 2.06 7.4745-0.236 1.651-0.986 3.185-2.144 4.386l-0.45 0.467c-1.167 1.21-2.622 2.106-4.23 2.603l-1.206 0.373c-1.857 0.574-3.819 0.725-5.743 0.443-1.536-0.226-3.019-0.724-4.379-1.471l-0.385-0.212c-2.44-1.34-4.471-3.314-5.881-5.712l-0.122-0.209c-1.243-2.115-1.993-4.4821-2.193-6.9262l-0.17-2.0668c-0.195-2.3772 0.179-4.7666 1.09-6.9712 1.011-2.4447 2.65-4.58 4.751-6.1904l0.77-0.5905c1.75-1.3417 3.762-2.303 5.907-2.8223 1.22-0.2955 2.472-0.4449 3.728-0.4449h2.634c4.469 0 8.813 1.4659 12.366 4.1724l0.218 0.1664c2.242 1.7079 4.079 3.889 5.38 6.3875 1.339 2.572 2.075 5.4142 2.154 8.3121l0.038 1.4207c0.1 3.6732-0.603 7.3232-2.058 10.698l-0.194 0.449c-1.264 2.931-3.105 5.578-5.414 7.784-2.372 2.266-5.187 4.018-8.268 5.147l-0.662 0.242c-2.598 0.952-5.327 1.502-8.091 1.631l-1.647 0.077c-2.69 0.126-5.385-0.108-8.014-0.696-4.2-0.939-8.151-2.764-11.588-5.353l-1.373-1.034c-1.874-1.411-3.583-3.03-5.094-4.825-2.272-2.699-4.069-5.763-5.315-9.062l-0.154-0.408c-1.004-2.6589-1.667-5.434-1.973-8.2593l-0.437-4.0194c-0.325-2.9973-0.293-6.0227 0.096-9.0124 0.632-4.8619 2.198-9.5561 4.611-13.825l0.335-0.5921c2.258-3.9944 5.204-7.5596 8.702-10.532 3.34-2.838 7.135-5.094 11.224-6.6735l4.073-1.5731c0.874-0.3375 1.787-0.5635 2.718-0.6729l3.758-0.4416c0.055-0.0064 0.106-0.031 0.144-0.0698 0.121-0.1203 0.084-0.3236-0.071-0.3945l-3.382-1.5483-4.007-1.4553c-2.961-1.0755-6.088-1.6257-9.239-1.6257-1.449 0-2.896 0.1165-4.327 0.3482l-0.087 0.0141c-2.304 0.3732-4.553 1.0316-6.695 1.9598l-4.949 2.1454-1.16 0.6435c-0.103 0.0569-0.229-0.0171-0.229-0.1341 0-0.0308 0.01-0.0609 0.027-0.0863l3.261-4.7895c1.293-1.9 2.924-3.5475 4.811-4.8613l0.728-0.5064c1-0.696 2.094-1.2449 3.251-1.6299 1.297-0.4318 2.655-0.652 4.022-0.652h4.553c0.043 0 0.057-0.0575 0.018-0.0769l-4.413-2.253c-1.579-0.806-3.057-1.7955-4.403-2.948l-0.52-0.4457c-1.176-1.0066-2.212-2.1657-3.081-3.4463-1.274-1.8791-2.168-3.9895-2.629-6.2118l-0.991-4.7671c-3e-3 -0.0162 9e-3 -0.0314 0.026-0.0309l2.086 0.0548c2.464 0.0648 4.882 0.679 7.077 1.7978 2.76 1.4062 5.068 3.5587 6.662 6.212l2.651 4.4126 2.548 4.4912c0.015 0.0277 0.058 0.0134 0.054-0.0181l-0.6-4.4524c-0.301-2.232 5e-3 -4.5038 0.885-6.5771 0.539-1.2689 1.284-2.4405 2.204-3.4677l1.22-1.3614c1.744-1.9472 3.8-3.5912 6.085-4.8646l3.059-1.7057c0.038-0.02112 0.081 0.01886 0.062 0.05798l-2.382 4.9897c-1.548 3.2412-2.53 6.7228-2.903 10.294-0.342 3.2631-0.171 6.5594 0.506 9.7699l0.614 2.9147c0.143 0.6781 0.369 1.336 0.672 1.9592l2.237 4.5918c0.05 0.1039 0.156 0.1698 0.272 0.1698 0.155 0 0.285-0.1175 0.3-0.2719l0.54-5.3912c0.033-0.3321 0.093-0.661 0.179-0.9836l0.746-2.8148c1.257-4.7459 3.353-9.2296 6.187-13.24 2.07-2.9282 4.512-5.5747 7.266-7.8726l4.023-3.357c2.656-2.216 5.673-3.9595 8.92-5.1544 2.578-0.94852 5.273-1.5412 8.011-1.7618l5.436-0.43788 3.431 0.20159c2.944 0.17295 5.852 0.73234 8.65 1.6637 3.339 1.1117 6.482 2.7405 9.314 4.8271l2.466 1.8164c3.686 2.7149 6.72 6.2153 8.883 10.247 2.4 4.4749 3.656 9.4729 3.656 14.55v1.8123c0 4.6493-1.202 9.2198-3.489 13.269l-0.26 0.4595c-1.995 3.5326-4.824 6.5246-8.242 8.7153l-0.629 0.4031c-2.957 1.8955-6.327 3.051-9.826 3.3687-2.094 0.1901-4.204 0.0776-6.266-0.3343l-1.103-0.2204c-4.296-0.8582-8.249-2.9498-11.372-6.0184l-0.971-0.9541c-2.385-2.343-4.06-5.3104-4.832-8.5613-0.643-2.7046-0.641-5.522 6e-3 -8.2257l0.487-2.0382c0.653-2.7321 2.017-5.2435 3.954-7.28 1.904-2.0011 4.294-3.4745 6.939-4.2763l0.762-0.2311c2.529-0.767 5.197-0.971 7.814-0.5975l0.398 0.0567c2.103 0.3001 4.126 1.0135 5.952 2.0989l0.238 0.1419c2.276 1.3528 4.153 3.2813 5.444 5.5907l0.218 0.3895c0.995 1.7816 1.562 3.7702 1.654 5.8083 0.11 2.4064-0.445 4.7964-1.603 6.9092l-0.777 1.4168c-0.655 1.1954-1.607 2.2025-2.764 2.9248-0.588 0.3668-1.446 0.8859-2.381 1.2291-2.064 0.7575-4.511 0.1919-6.495-0.7557-1.31-0.6259-2.411-1.6169-3.169-2.8536zm0 0c-0.058-0.0633-0.064-0.071-7e-3 -0.0101 3e-3 0.0031 5e-3 0.0065 7e-3 0.0101zm-8.422 36.238c-6.27-0.6391-20.55-6.5782-27.516-25.222 6.684 0.6422 21.546 6.5857 27.516 25.222z" stroke="#e39e5d" stroke-width=".51712"/>
 <defs>
  <filter id="filter0_i_8_247" x=".74219" y="-.0087891" width="232.27" height="232.27" color-interpolation-filters="sRGB" filterUnits="userSpaceOnUse">
   <feFlood flood-opacity="0" result="BackgroundImageFix"/>
   <feBlend in="SourceGraphic" in2="BackgroundImageFix" result="shape"/>
   <feColorMatrix in="SourceAlpha" result="hardAlpha" values="0 0 0 0 0 0 0 0 0 0 0 0 0 0 0 0 0 0 127 0"/>
   <feOffset dy="4"/>
   <feGaussianBlur stdDeviation="2"/>
   <feComposite in2="hardAlpha" k2="-1" k3="1" operator="arithmetic"/>
   <feColorMatrix values="0 0 0 0 0 0 0 0 0 0 0 0 0 0 0 0 0 0 0.25 0"/>
   <feBlend in2="shape" result="effect1_innerShadow_8_247"/>
  </filter>
 </defs>
</svg>
