<svg width="2922" height="1172" viewBox="0 0 2922 1172" fill="none" xmlns="http://www.w3.org/2000/svg">
<path d="M878.241 355.474L893.018 367.424C895.734 369.621 898.229 372.078 900.467 374.761C921.486 399.96 915.103 437.963 887.006 454.913L845.314 480.064C829.823 489.41 811.992 494.154 793.905 493.743L583.404 488.96C565.149 488.546 546.999 486.078 529.296 481.603L307.512 425.542C240.426 408.584 205.199 320.951 258.909 277.324C338.513 212.665 405.832 247.641 423.841 255.592C462.055 272.465 519.159 327.869 540.196 343.081C557.876 357.249 601.282 358.803 619.982 308.76C638.681 258.717 646.028 231.125 638.036 243.839C636.219 247.379 635.758 241.132 630.173 235.17C616.549 220.624 556.352 217.071 536.544 214.871C473.022 207.816 520.226 167.233 579.234 142.677C584.841 140.344 590.831 138.005 597.224 135.672C674.38 107.515 731.799 155.798 750.864 183.458L827.316 299.358C841.307 320.568 858.483 339.496 878.241 355.474Z" fill="#50A4E4" stroke="#50A4E4" stroke-width="9.52476" stroke-linecap="round"/>
<path d="M849.006 346.38L863.784 358.331C866.5 360.527 868.995 362.985 871.233 365.668C892.251 390.866 885.869 428.87 857.772 445.819L816.08 470.97C800.589 480.316 782.758 485.06 764.671 484.649L554.17 479.867C535.915 479.452 517.765 476.984 500.062 472.509L289.333 419.242C217.059 400.973 215.829 347.736 266.763 293.303C330.797 224.871 414.046 262.85 431.695 271.571C451.148 281.184 493.294 304.505 514.331 319.717C532.012 333.884 583.696 334.491 602.395 284.448C616.483 246.748 613.539 244.781 607.813 251.54C603.335 256.826 600.372 262.674 594.482 266.322C568.858 282.191 532.286 283.253 506.535 267.589C476.65 249.41 469.915 223.904 473.667 200.154C480.479 157.032 526.979 141.544 567.99 126.578C645.146 98.4216 702.565 146.704 721.63 174.364L798.082 290.264C812.073 311.475 829.249 330.402 849.006 346.38Z" fill="#1577E2" stroke="#1577E2" stroke-width="9.52476" stroke-linecap="round"/>
<path d="M1198.91 527.815C1229.86 545.377 1238.34 554.854 1270.67 540.264C1270.79 540.213 1270.88 540.116 1270.93 540.004C1285.53 507.667 1276.38 498.863 1258.82 467.905C1255.85 462.68 1252.6 456.985 1249.05 450.792L1154.14 425.419L1179 516.454C1186.28 520.633 1192.9 524.411 1198.91 527.815Z" fill="#9AB0D5"/>
<path d="M962.821 148.358C920.308 132.901 881.818 126.205 856 125L904.558 175.5L1021.23 174.5C1001.47 163.857 981.748 155.239 962.821 148.358Z" fill="#F3C658"/>
<path d="M1168.85 313.777C1147.01 276.966 1120.28 246.823 1091.46 222.296L1025.44 225.249L959.407 228.202L1154.14 425.419L1249.05 450.792C1230.98 419.248 1205.07 374.799 1168.85 313.777Z" fill="#F3C658"/>
<path d="M953.729 360.971C978.177 389.596 1008.18 416.134 1044.78 437.852C1104.02 473.012 1147.64 498.457 1179 516.454L1154.14 425.419L959.407 228.202L953.729 360.971Z" fill="#F3C658"/>
<path d="M856 125C857.205 150.81 863.897 189.285 879.343 231.782C884.651 246.385 890.992 261.462 898.5 276.664L904.558 175.5L856 125Z" fill="#F3C658"/>
<path d="M953.729 360.971L959.407 228.202L931 203L904.558 175.5L898.5 276.664C906.219 292.295 915.171 308.057 925.5 323.569C933.96 336.273 943.343 348.811 953.729 360.971Z" fill="#9AB0D5"/>
<path d="M959.407 228.202L1025.44 225.249L1091.46 222.296C1083.4 215.432 1075.17 209.007 1066.84 203C1051.85 192.196 1036.53 182.741 1021.23 174.5L904.558 175.5L931 203L959.407 228.202Z" fill="#9AB0D5"/>
<path d="M856 125C857.205 150.81 863.897 189.285 879.343 231.782C884.651 246.385 890.992 261.462 898.5 276.664M856 125C881.818 126.205 920.308 132.901 962.821 148.358C981.748 155.239 1001.47 163.857 1021.23 174.5M856 125L904.558 175.5M1091.46 222.296C1120.28 246.823 1147.01 276.966 1168.85 313.777C1205.07 374.799 1230.98 419.248 1249.05 450.792M1091.46 222.296L1025.44 225.249L959.407 228.202M1091.46 222.296C1083.4 215.432 1075.17 209.007 1066.84 203C1051.85 192.196 1036.53 182.741 1021.23 174.5M953.729 360.971C978.177 389.596 1008.18 416.134 1044.78 437.852C1104.02 473.012 1147.64 498.457 1179 516.454M953.729 360.971L959.407 228.202M953.729 360.971C943.343 348.811 933.96 336.273 925.5 323.569C915.171 308.057 906.219 292.295 898.5 276.664M1154.14 425.419L1179 516.454M1154.14 425.419L1249.05 450.792M1154.14 425.419L959.407 228.202M1179 516.454C1186.28 520.633 1192.9 524.411 1198.91 527.815C1229.86 545.377 1238.34 554.854 1270.67 540.264C1270.79 540.213 1270.88 540.116 1270.93 540.004C1285.53 507.667 1276.38 498.863 1258.82 467.905C1255.85 462.68 1252.6 456.985 1249.05 450.792M959.407 228.202L931 203L904.558 175.5M904.558 175.5L898.5 276.664M904.558 175.5L1021.23 174.5" stroke="#060F5C" stroke-width="7.10451" stroke-linecap="round"/>
<path d="M1803.83 301.339C1562.98 250.013 1365.21 336.28 1261.77 409.968C1227.98 434.038 1209.94 473.263 1205.7 514.532C1201.17 558.621 1213.33 602.806 1239.77 638.373L1335.17 766.692C1418.23 878.415 1537.93 958.646 1674.77 984.229C1741.77 996.754 1803.53 1006.23 1833.97 1005.74C1873.36 1005.12 2118.82 972.189 2368.25 931.344C2633.41 887.925 2828.78 671.564 2862.38 404.99C2866.09 385.058 2865.73 362.317 2862.44 339.325C2847.88 237.574 2751.4 163.371 2650.97 185.224C2635.27 188.639 2618.4 193.316 2600.38 199.485C2511.72 229.82 2506.29 310.139 2519.83 368.764C2526.04 395.65 2543.27 418.115 2563.4 436.993C2577.81 448.797 2596.98 453.033 2615.02 448.4L2620.19 447.072C2638.21 442.446 2652.29 428.401 2656.96 410.398C2659.62 400.167 2659.03 389.365 2655.29 379.478L2654.38 377.062C2648.38 361.195 2635.87 348.661 2620.01 342.634L2611.95 339.571C2609.44 338.614 2607.06 337.31 2604.91 335.697C2584.15 320.163 2592.77 287.264 2618.48 283.905L2624.81 283.077C2631.08 282.258 2637.45 283.345 2643.1 286.196L2655.6 292.511C2666.09 297.811 2675.22 305.443 2682.3 314.822L2684.48 317.698C2694.57 331.067 2700.85 346.927 2702.63 363.584L2704.75 383.383C2706.1 396.043 2706.35 408.922 2702.78 421.144C2692.32 456.994 2662.44 508 2597.92 519.296C2410.8 552.055 2233.44 427.701 2053.06 368.132C1982.97 344.985 1899.81 321.791 1803.83 301.339Z" fill="#50A4E4"/>
<path d="M2862.38 404.99C2866.09 385.058 2865.73 362.317 2862.44 339.325C2847.88 237.574 2751.4 163.371 2650.97 185.224C2635.27 188.639 2618.4 193.316 2600.38 199.485C2511.72 229.82 2506.29 310.139 2519.83 368.764C2526.04 395.65 2543.27 418.115 2563.4 436.993V436.993V436.993C2577.81 448.797 2596.98 453.033 2615.02 448.4L2620.19 447.072C2638.21 442.446 2652.29 428.401 2656.96 410.398V410.398C2659.62 400.167 2659.03 389.365 2655.29 379.478L2654.38 377.062C2648.38 361.195 2635.87 348.661 2620.01 342.634L2611.95 339.571C2609.44 338.614 2607.06 337.31 2604.91 335.697V335.697C2584.15 320.163 2592.77 287.264 2618.48 283.905L2624.81 283.077C2631.08 282.258 2637.45 283.345 2643.1 286.196L2655.6 292.511C2666.09 297.811 2675.22 305.443 2682.3 314.822L2684.48 317.698C2694.57 331.067 2700.85 346.927 2702.63 363.584L2704.75 383.383C2706.1 396.043 2706.35 408.922 2702.78 421.144C2692.32 456.994 2662.44 508 2597.92 519.296V519.296C2410.8 552.055 2233.44 427.701 2053.06 368.132C1982.97 344.985 1899.81 321.791 1803.83 301.338C1562.98 250.013 1365.21 336.28 1261.77 409.968C1227.98 434.038 1209.94 473.263 1205.7 514.532V514.532C1201.17 558.621 1213.33 602.806 1239.77 638.373L1335.17 766.692C1418.23 878.415 1537.93 958.646 1674.77 984.229C1741.77 996.754 1803.53 1006.23 1833.97 1005.74C1873.36 1005.12 2118.82 972.189 2368.25 931.344C2633.41 887.925 2828.78 671.564 2862.38 404.99V404.99ZM2862.38 404.99C2849.32 475.187 2876.48 373.359 2862.38 404.99Z" stroke="#50A4E4" stroke-width="12.1537" stroke-linecap="round"/>
<path d="M1786.91 303.43C1546.05 252.104 1348.29 338.371 1244.85 412.06C1211.06 436.13 1193.02 475.355 1188.78 516.624C1184.25 560.712 1196.41 604.897 1222.85 640.465L1318.25 768.783C1401.31 880.507 1521 960.738 1657.85 986.321C1724.85 998.845 1786.61 1008.32 1817.05 1007.84C1857.4 1007.19 2115.92 966.651 2372.96 919.855C2627.44 873.526 2814.81 663.919 2845.46 407.081C2848.83 388.93 2849.07 369.487 2846.87 350.125C2835.67 251.339 2745.03 167.528 2645.96 175.825C2626.14 177.484 2604.45 181.829 2581.01 189.851C2480.12 224.371 2489.01 333.235 2509.36 393.4C2513.24 404.859 2520.53 414.744 2529.35 423.021L2530.42 424.024C2540.95 433.902 2553.82 440.938 2567.82 444.47L2573.62 445.933C2586.02 449.063 2599.08 448.475 2611.15 444.241L2612.32 443.831C2629.41 437.837 2643.07 424.721 2649.74 407.881L2650.49 406.004C2652.9 399.912 2654.14 393.417 2654.14 386.864C2654.14 373.812 2649.23 361.238 2640.38 351.645L2633.74 344.453C2631.18 341.676 2627.96 339.594 2624.37 338.401L2618.86 336.566C2607.83 332.894 2603.21 319.824 2609.47 310.032C2612.38 305.486 2617.19 302.501 2622.55 301.913L2633.52 300.711C2650.63 298.836 2667.08 307.875 2674.68 323.322L2678.76 331.631C2681.55 337.313 2683.33 343.441 2684 349.737L2687.13 378.988C2688.95 395.958 2689.39 413.294 2683.9 429.453C2671.91 464.727 2641.87 510.731 2581 521.388C2393.88 554.146 2216.52 429.793 2036.14 370.223C1966.05 347.077 1882.89 323.882 1786.91 303.43Z" fill="#1577E2"/>
<path d="M2845.46 407.081C2848.83 388.93 2849.07 369.487 2846.87 350.125C2835.67 251.339 2745.03 167.528 2645.96 175.825C2626.14 177.484 2604.45 181.829 2581.01 189.851C2480.12 224.371 2489.01 333.235 2509.36 393.4C2513.24 404.859 2520.53 414.744 2529.35 423.021L2530.42 424.024C2540.95 433.902 2553.82 440.938 2567.82 444.47L2573.62 445.933C2586.02 449.063 2599.08 448.475 2611.15 444.241L2612.32 443.831C2629.41 437.837 2643.07 424.721 2649.74 407.881L2650.49 406.004C2652.9 399.912 2654.14 393.417 2654.14 386.864V386.864C2654.14 373.812 2649.23 361.238 2640.38 351.645L2633.74 344.453C2631.18 341.676 2627.96 339.594 2624.37 338.401L2618.86 336.566C2607.83 332.894 2603.21 319.824 2609.47 310.032V310.032C2612.38 305.486 2617.19 302.501 2622.55 301.913L2633.52 300.711C2650.63 298.836 2667.08 307.875 2674.68 323.322L2678.76 331.631C2681.55 337.313 2683.33 343.441 2684 349.737L2687.13 378.988C2688.95 395.958 2689.39 413.294 2683.9 429.453C2671.91 464.727 2641.87 510.731 2581 521.388V521.388C2393.88 554.146 2216.52 429.793 2036.14 370.223C1966.05 347.077 1882.89 323.882 1786.91 303.43C1546.05 252.104 1348.29 338.371 1244.85 412.06C1211.06 436.13 1193.02 475.355 1188.78 516.624V516.624C1184.25 560.712 1196.41 604.897 1222.85 640.465L1318.25 768.783C1401.31 880.507 1521 960.738 1657.85 986.321C1724.85 998.845 1786.61 1008.32 1817.05 1007.84C1857.4 1007.19 2115.92 966.651 2372.96 919.855C2627.44 873.526 2814.81 663.919 2845.46 407.081V407.081ZM2845.46 407.081C2832.4 477.278 2859.56 375.451 2845.46 407.081Z" stroke="#1577E2" stroke-width="12.1537" stroke-linecap="round"/>
<path d="M916.059 337.206C618.164 323.17 396.228 484.183 265.888 604.161C213.963 651.958 185.514 719.46 181.266 789.907C171.748 947.708 288.546 1084.86 445.848 1100.6L856.302 1141.67L3092.37 1174.56C3222.65 1176.47 3329.29 1071.39 3329.29 941.096V933.553C3329.29 821.107 3246.22 725.95 3134.8 710.768C3117.21 708.371 3100 703.894 3083.43 697.518C2998.21 664.719 2840.83 606.067 2734.96 573.284C2669.27 552.947 2597.14 550.844 2534.61 554.45C2453.37 559.135 2375.46 584.943 2298.66 611.834C2176.41 654.638 1984.56 703.872 1769.57 674.686C1387.4 622.803 1378.14 358.978 916.059 337.206Z" fill="#394694" stroke="#394694" stroke-width="6.48531" stroke-linecap="round"/>
<path d="M962.151 401.376C671.835 387.697 421.947 516.267 276.776 624.785C212.528 672.811 180.649 750.257 177.256 830.4C169.942 1003.15 298.678 1151.61 470.726 1168.82L856.302 1207.41L3092.37 1240.29C3222.65 1242.2 3329.29 1137.12 3329.29 1006.83V999.286C3329.29 886.84 3246.22 791.683 3134.8 776.501C3117.21 774.104 3100 769.627 3083.43 763.251C2998.21 730.453 2840.83 671.801 2734.96 639.017C2670.42 619.034 2601.61 609.028 2541.61 605.509C2460.38 600.745 2381.15 624.305 2301.65 641.687C2177.4 668.855 1983.34 691.663 1769.57 662.642C1387.4 610.76 1424.23 423.149 962.151 401.376Z" fill="#060F5C" stroke="#060F5C" stroke-width="6.48531" stroke-linecap="round"/>
<path d="M1668.62 452.08C1667.74 452.034 1667.03 452.743 1667.08 453.618C1669.05 491.445 1678.9 547.146 1701.23 608.58L1818.63 603.33L1823.64 486.251C1762.18 463.906 1706.46 454.048 1668.62 452.08Z" fill="#E64614"/>
<path d="M2125.75 728.813C2093.72 674.836 2054.53 630.635 2012.27 594.67L1818.63 603.33L1810.3 798.017C1846.15 839.992 1890.15 878.905 1943.81 910.751C2030.69 962.309 2094.65 999.619 2140.63 1026.01L2104.17 892.52L2243.36 929.726C2216.85 883.471 2178.86 818.294 2125.75 728.813Z" fill="#E64614"/>
<path d="M2012.27 594.67C1951.71 543.127 1884.83 508.499 1823.64 486.251L1818.63 603.33L2012.27 594.67Z" fill="#F3C658"/>
<path d="M1701.23 608.58C1723.57 670.04 1758.39 737.238 1810.3 798.017L1818.63 603.33L1701.23 608.58Z" fill="#F3C658"/>
<path d="M2169.82 1042.67C2215.21 1068.42 2227.64 1082.32 2275.06 1060.92C2275.22 1060.85 2275.36 1060.71 2275.44 1060.54C2296.84 1013.12 2283.42 1000.21 2257.67 954.82C2253.32 947.157 2248.56 938.806 2243.36 929.726L2104.17 892.52L2140.63 1026.01C2151.31 1032.14 2161.02 1037.68 2169.82 1042.67Z" fill="#F3C658"/>
<path d="M1701.23 608.58C1678.9 547.146 1669.05 491.445 1667.08 453.618C1667.03 452.743 1667.74 452.034 1668.62 452.08C1706.46 454.048 1762.18 463.906 1823.64 486.251M1701.23 608.58C1723.57 670.04 1758.39 737.238 1810.3 798.017M1701.23 608.58L1818.63 603.33M2012.27 594.67C2054.53 630.635 2093.72 674.836 2125.75 728.813C2178.86 818.294 2216.85 883.471 2243.36 929.726M2012.27 594.67C1951.71 543.127 1884.83 508.499 1823.64 486.251M2012.27 594.67L1818.63 603.33M1823.64 486.251L1818.63 603.33M1810.3 798.017C1846.15 839.992 1890.15 878.905 1943.81 910.751C2030.69 962.309 2094.65 999.619 2140.63 1026.01M1810.3 798.017L1818.63 603.33M1899.91 750.021L1957.21 694.584M2140.63 1026.01C2151.31 1032.14 2161.02 1037.68 2169.82 1042.67C2215.21 1068.42 2227.64 1082.32 2275.06 1060.92C2275.22 1060.85 2275.36 1060.71 2275.44 1060.54C2296.84 1013.12 2283.42 1000.21 2257.67 954.82C2253.32 947.157 2248.56 938.806 2243.36 929.726M2140.63 1026.01L2104.17 892.52L2243.36 929.726" stroke="#060F5C" stroke-width="10.4177" stroke-linecap="round"/>
<path d="M657.9 564.542C246.873 155.351 -260.84 303.711 -480.319 382.852C-489.584 386.192 -499.67 381.152 -502.648 371.764C-508.618 352.945 -536.392 357.245 -536.392 376.988V460.625L-570.394 1153.5C-573.87 1224.32 -517.383 1283.65 -446.473 1283.65L3754.98 1307.28C3726.58 1269.36 3540.86 1111.78 3323.64 994.639C3052.11 848.219 2772.91 750.998 2525.56 750.998C2327.68 750.998 2065.5 836.139 1820.51 936.118C1580.34 1034.13 1432.5 1122.79 1222.17 1042.01C1074.79 985.403 831.749 737.614 657.9 564.542Z" fill="#0EA2DB" stroke="#0EA2DB" stroke-width="11.023" stroke-linecap="round"/>
<path d="M708.777 683.105C300.333 276.453 -203.871 309.426 -425.518 381.822C-438.883 386.187 -453.514 384.966 -465.641 377.853C-496.962 359.48 -536.396 382.066 -536.396 418.377V531.571L-570.395 1224.44C-573.87 1295.26 -517.389 1354.58 -446.486 1354.58L3758.92 1311.29C3730.52 1273.37 3619.43 1168.25 3402.23 1051.12C3130.73 904.7 2773.45 801.972 2526.13 801.972C2328.27 801.972 1892.05 924.774 1698.67 986.175C1505.29 1047.58 1130.67 1103.15 708.777 683.105Z" fill="#0091D0" stroke="#0091D0" stroke-width="11.023" stroke-linecap="round"/>
</svg>
